<svg xmlns="http://www.w3.org/2000/svg" width="980" height="520" viewBox="0 0 980 520">
<rect width="100%" height="100%" fill="white"/>
<text x="490.0" y="35" text-anchor="middle" font-family="Arial" font-size="22" font-weight="700">VLSP 2016 Text Length Distribution</text>
<line x1="75" y1="435" x2="945" y2="435" stroke="#333"/>
<line x1="75" y1="70" x2="75" y2="435" stroke="#333"/>
<text x="935" y="58" text-anchor="end" font-family="Arial" font-size="12" fill="#666">0-500 words shown; 9 texts &gt;500 omitted</text>
<line x1="70" y1="435.00" x2="945" y2="435.00" stroke="#ddd"/>
<text x="63" y="439.00" text-anchor="end" font-family="Arial" font-size="12" fill="#555">0</text>
<line x1="70" y1="362.00" x2="945" y2="362.00" stroke="#ddd"/>
<text x="63" y="366.00" text-anchor="end" font-family="Arial" font-size="12" fill="#555">374</text>
<line x1="70" y1="289.00" x2="945" y2="289.00" stroke="#ddd"/>
<text x="63" y="293.00" text-anchor="end" font-family="Arial" font-size="12" fill="#555">748</text>
<line x1="70" y1="216.00" x2="945" y2="216.00" stroke="#ddd"/>
<text x="63" y="220.00" text-anchor="end" font-family="Arial" font-size="12" fill="#555">1123</text>
<line x1="70" y1="143.00" x2="945" y2="143.00" stroke="#ddd"/>
<text x="63" y="147.00" text-anchor="end" font-family="Arial" font-size="12" fill="#555">1497</text>
<line x1="70" y1="70.00" x2="945" y2="70.00" stroke="#ddd"/>
<text x="63" y="74.00" text-anchor="end" font-family="Arial" font-size="12" fill="#555">1871</text>
<rect x="76.00" y="170.66" width="15.40" height="264.34" fill="#4C78A8" opacity="0.85"/>
<rect x="93.40" y="70.00" width="15.40" height="365.00" fill="#4C78A8" opacity="0.85"/>
<rect x="110.80" y="213.39" width="15.40" height="221.61" fill="#4C78A8" opacity="0.85"/>
<rect x="128.20" y="306.05" width="15.40" height="128.95" fill="#4C78A8" opacity="0.85"/>
<rect x="145.60" y="356.19" width="15.40" height="78.81" fill="#4C78A8" opacity="0.85"/>
<rect x="163.00" y="384.86" width="15.40" height="50.14" fill="#4C78A8" opacity="0.85"/>
<rect x="180.40" y="407.10" width="15.40" height="27.90" fill="#4C78A8" opacity="0.85"/>
<rect x="197.80" y="414.71" width="15.40" height="20.29" fill="#4C78A8" opacity="0.85"/>
<rect x="215.20" y="419.78" width="15.40" height="15.22" fill="#4C78A8" opacity="0.85"/>
<rect x="232.60" y="424.66" width="15.40" height="10.34" fill="#4C78A8" opacity="0.85"/>
<rect x="250.00" y="426.03" width="15.40" height="8.97" fill="#4C78A8" opacity="0.85"/>
<rect x="267.40" y="430.32" width="15.40" height="4.68" fill="#4C78A8" opacity="0.85"/>
<rect x="284.80" y="431.68" width="15.40" height="3.32" fill="#4C78A8" opacity="0.85"/>
<rect x="302.20" y="431.10" width="15.40" height="3.90" fill="#4C78A8" opacity="0.85"/>
<rect x="319.60" y="432.66" width="15.40" height="2.34" fill="#4C78A8" opacity="0.85"/>
<rect x="337.00" y="433.05" width="15.40" height="1.95" fill="#4C78A8" opacity="0.85"/>
<rect x="354.40" y="432.85" width="15.40" height="2.15" fill="#4C78A8" opacity="0.85"/>
<rect x="371.80" y="434.02" width="15.40" height="0.98" fill="#4C78A8" opacity="0.85"/>
<rect x="389.20" y="433.83" width="15.40" height="1.17" fill="#4C78A8" opacity="0.85"/>
<rect x="406.60" y="434.22" width="15.40" height="0.78" fill="#4C78A8" opacity="0.85"/>
<rect x="424.00" y="434.41" width="15.40" height="0.59" fill="#4C78A8" opacity="0.85"/>
<rect x="441.40" y="434.61" width="15.40" height="0.39" fill="#4C78A8" opacity="0.85"/>
<rect x="458.80" y="434.41" width="15.40" height="0.59" fill="#4C78A8" opacity="0.85"/>
<rect x="476.20" y="434.41" width="15.40" height="0.59" fill="#4C78A8" opacity="0.85"/>
<rect x="493.60" y="434.61" width="15.40" height="0.39" fill="#4C78A8" opacity="0.85"/>
<rect x="511.00" y="435.00" width="15.40" height="0.00" fill="#4C78A8" opacity="0.85"/>
<rect x="528.40" y="434.80" width="15.40" height="0.20" fill="#4C78A8" opacity="0.85"/>
<rect x="545.80" y="434.80" width="15.40" height="0.20" fill="#4C78A8" opacity="0.85"/>
<rect x="563.20" y="434.80" width="15.40" height="0.20" fill="#4C78A8" opacity="0.85"/>
<rect x="580.60" y="435.00" width="15.40" height="0.00" fill="#4C78A8" opacity="0.85"/>
<rect x="598.00" y="434.80" width="15.40" height="0.20" fill="#4C78A8" opacity="0.85"/>
<rect x="615.40" y="435.00" width="15.40" height="0.00" fill="#4C78A8" opacity="0.85"/>
<rect x="632.80" y="435.00" width="15.40" height="0.00" fill="#4C78A8" opacity="0.85"/>
<rect x="650.20" y="434.80" width="15.40" height="0.20" fill="#4C78A8" opacity="0.85"/>
<rect x="667.60" y="434.80" width="15.40" height="0.20" fill="#4C78A8" opacity="0.85"/>
<rect x="685.00" y="434.80" width="15.40" height="0.20" fill="#4C78A8" opacity="0.85"/>
<rect x="702.40" y="435.00" width="15.40" height="0.00" fill="#4C78A8" opacity="0.85"/>
<rect x="719.80" y="435.00" width="15.40" height="0.00" fill="#4C78A8" opacity="0.85"/>
<rect x="737.20" y="434.61" width="15.40" height="0.39" fill="#4C78A8" opacity="0.85"/>
<rect x="754.60" y="434.80" width="15.40" height="0.20" fill="#4C78A8" opacity="0.85"/>
<rect x="772.00" y="435.00" width="15.40" height="0.00" fill="#4C78A8" opacity="0.85"/>
<rect x="789.40" y="435.00" width="15.40" height="0.00" fill="#4C78A8" opacity="0.85"/>
<rect x="806.80" y="434.80" width="15.40" height="0.20" fill="#4C78A8" opacity="0.85"/>
<rect x="824.20" y="435.00" width="15.40" height="0.00" fill="#4C78A8" opacity="0.85"/>
<rect x="841.60" y="435.00" width="15.40" height="0.00" fill="#4C78A8" opacity="0.85"/>
<rect x="859.00" y="435.00" width="15.40" height="0.00" fill="#4C78A8" opacity="0.85"/>
<rect x="876.40" y="435.00" width="15.40" height="0.00" fill="#4C78A8" opacity="0.85"/>
<rect x="893.80" y="435.00" width="15.40" height="0.00" fill="#4C78A8" opacity="0.85"/>
<rect x="911.20" y="435.00" width="15.40" height="0.00" fill="#4C78A8" opacity="0.85"/>
<rect x="928.60" y="435.00" width="15.40" height="0.00" fill="#4C78A8" opacity="0.85"/>
<text x="83.70" y="461" text-anchor="middle" font-family="Arial" font-size="11" fill="#555">0-9</text>
<text x="188.10" y="461" text-anchor="middle" font-family="Arial" font-size="11" fill="#555">60-69</text>
<text x="292.50" y="461" text-anchor="middle" font-family="Arial" font-size="11" fill="#555">120-129</text>
<text x="396.90" y="461" text-anchor="middle" font-family="Arial" font-size="11" fill="#555">180-189</text>
<text x="501.30" y="461" text-anchor="middle" font-family="Arial" font-size="11" fill="#555">240-249</text>
<text x="605.70" y="461" text-anchor="middle" font-family="Arial" font-size="11" fill="#555">300-309</text>
<text x="710.10" y="461" text-anchor="middle" font-family="Arial" font-size="11" fill="#555">360-369</text>
<text x="814.50" y="461" text-anchor="middle" font-family="Arial" font-size="11" fill="#555">420-429</text>
<text x="936.30" y="461" text-anchor="middle" font-family="Arial" font-size="11" fill="#555">490-500</text>
<text x="490.0" y="502" text-anchor="middle" font-family="Arial" font-size="13" fill="#222">Number of words</text>
</svg>