<svg xmlns="http://www.w3.org/2000/svg" width="980" height="625" viewBox="0 0 980 625">
<rect width="100%" height="100%" fill="white"/>
<text x="490.0" y="35" text-anchor="middle" font-family="Arial" font-size="22" font-weight="700">VLSP 2016 Top 20 Most Frequent Words</text>
<text x="158" y="87" text-anchor="end" font-family="Arial" font-size="13" fill="#222">có</text>
<rect x="170" y="73" width="755.00" height="18" fill="#F58518"/>
<text x="931.00" y="87" font-family="Arial" font-size="12" fill="#333">2632</text>
<text x="158" y="113" text-anchor="end" font-family="Arial" font-size="13" fill="#222">là</text>
<rect x="170" y="99" width="734.06" height="18" fill="#F58518"/>
<text x="910.06" y="113" font-family="Arial" font-size="12" fill="#333">2559</text>
<text x="158" y="139" text-anchor="end" font-family="Arial" font-size="13" fill="#222">thì</text>
<rect x="170" y="125" width="658.33" height="18" fill="#F58518"/>
<text x="834.33" y="139" font-family="Arial" font-size="12" fill="#333">2295</text>
<text x="158" y="165" text-anchor="end" font-family="Arial" font-size="13" fill="#222">không</text>
<rect x="170" y="151" width="559.08" height="18" fill="#F58518"/>
<text x="735.08" y="165" font-family="Arial" font-size="12" fill="#333">1949</text>
<text x="158" y="191" text-anchor="end" font-family="Arial" font-size="13" fill="#222">mình</text>
<rect x="170" y="177" width="470.44" height="18" fill="#F58518"/>
<text x="646.44" y="191" font-family="Arial" font-size="12" fill="#333">1640</text>
<text x="158" y="217" text-anchor="end" font-family="Arial" font-size="13" fill="#222">mà</text>
<rect x="170" y="203" width="422.54" height="18" fill="#F58518"/>
<text x="598.54" y="217" font-family="Arial" font-size="12" fill="#333">1473</text>
<text x="158" y="243" text-anchor="end" font-family="Arial" font-size="13" fill="#222">của</text>
<rect x="170" y="229" width="415.94" height="18" fill="#F58518"/>
<text x="591.94" y="243" font-family="Arial" font-size="12" fill="#333">1450</text>
<text x="158" y="269" text-anchor="end" font-family="Arial" font-size="13" fill="#222">và</text>
<rect x="170" y="255" width="401.88" height="18" fill="#F58518"/>
<text x="577.88" y="269" font-family="Arial" font-size="12" fill="#333">1401</text>
<text x="158" y="295" text-anchor="end" font-family="Arial" font-size="13" fill="#222">dùng</text>
<rect x="170" y="281" width="398.15" height="18" fill="#F58518"/>
<text x="574.15" y="295" font-family="Arial" font-size="12" fill="#333">1388</text>
<text x="158" y="321" text-anchor="end" font-family="Arial" font-size="13" fill="#222">mua</text>
<rect x="170" y="307" width="386.11" height="18" fill="#F58518"/>
<text x="562.11" y="321" font-family="Arial" font-size="12" fill="#333">1346</text>
<text x="158" y="347" text-anchor="end" font-family="Arial" font-size="13" fill="#222">cái</text>
<rect x="170" y="333" width="372.91" height="18" fill="#F58518"/>
<text x="548.91" y="347" font-family="Arial" font-size="12" fill="#333">1300</text>
<text x="158" y="373" text-anchor="end" font-family="Arial" font-size="13" fill="#222">này</text>
<rect x="170" y="359" width="369.18" height="18" fill="#F58518"/>
<text x="545.18" y="373" font-family="Arial" font-size="12" fill="#333">1287</text>
<text x="158" y="399" text-anchor="end" font-family="Arial" font-size="13" fill="#222">cũng</text>
<rect x="170" y="385" width="353.69" height="18" fill="#F58518"/>
<text x="529.69" y="399" font-family="Arial" font-size="12" fill="#333">1233</text>
<text x="158" y="425" text-anchor="end" font-family="Arial" font-size="13" fill="#222">hơn</text>
<rect x="170" y="411" width="349.39" height="18" fill="#F58518"/>
<text x="525.39" y="425" font-family="Arial" font-size="12" fill="#333">1218</text>
<text x="158" y="451" text-anchor="end" font-family="Arial" font-size="13" fill="#222">quá</text>
<rect x="170" y="437" width="322.42" height="18" fill="#F58518"/>
<text x="498.42" y="451" font-family="Arial" font-size="12" fill="#333">1124</text>
<text x="158" y="477" text-anchor="end" font-family="Arial" font-size="13" fill="#222">với</text>
<rect x="170" y="463" width="314.97" height="18" fill="#F58518"/>
<text x="490.97" y="477" font-family="Arial" font-size="12" fill="#333">1098</text>
<text x="158" y="503" text-anchor="end" font-family="Arial" font-size="13" fill="#222">được</text>
<rect x="170" y="489" width="314.39" height="18" fill="#F58518"/>
<text x="490.39" y="503" font-family="Arial" font-size="12" fill="#333">1096</text>
<text x="158" y="529" text-anchor="end" font-family="Arial" font-size="13" fill="#222">1</text>
<rect x="170" y="515" width="312.10" height="18" fill="#F58518"/>
<text x="488.10" y="529" font-family="Arial" font-size="12" fill="#333">1088</text>
<text x="158" y="555" text-anchor="end" font-family="Arial" font-size="13" fill="#222">con</text>
<rect x="170" y="541" width="308.94" height="18" fill="#F58518"/>
<text x="484.94" y="555" font-family="Arial" font-size="12" fill="#333">1077</text>
<text x="158" y="581" text-anchor="end" font-family="Arial" font-size="13" fill="#222">cho</text>
<rect x="170" y="567" width="304.07" height="18" fill="#F58518"/>
<text x="480.07" y="581" font-family="Arial" font-size="12" fill="#333">1060</text>
</svg>